<svg width="64" height="64" viewBox="0 0 64 64" fill="none" xmlns="http://www.w3.org/2000/svg">
<g clip-path="url(#clip0_431_89)">
<path d="M26.7019 57.3859L33.5512 43.5244L26.6213 28.2054L22.0988 37.1114L14.2524 37.1415L22.8643 56.4913C24.5565 59.4264 26.2487 58.0895 26.7019 57.3859Z" fill="white"/>
<path d="M35.3743 6.11152C36.1499 4.88519 37.0665 4.08105 38.1241 3.71918C34.2462 0.562906 29.8748 2.29182 26.7322 4.46302C24.8789 5.74965 23.1867 7.46851 21.7061 9.5794L3.83765 35.0407L20.6988 35.2216L35.3743 6.11152Z" fill="white"/>
<path d="M37.2982 6.6141L30.449 20.4756L37.3788 35.7946L41.9013 26.8886L49.7477 26.8585L41.1358 7.51877C39.4436 4.57358 37.7515 5.92053 37.2982 6.6141Z" fill="white"/>
<path d="M28.6257 57.8885C27.8502 59.1148 26.9336 59.919 25.876 60.2808C29.7438 63.4271 34.1152 61.7082 37.2578 59.5269C39.1111 58.2403 40.8033 56.5214 42.2839 54.4106L60.1523 28.9493L43.2911 28.7683L28.6257 57.8885Z" fill="white"/>
<path d="M43.9761 9.05672C43.1602 7.22728 42.1832 5.47827 41.0652 3.81971C37.1168 -0.894596 31.4762 -1.26651 25.5839 2.81453C23.5392 4.23184 21.6758 6.12158 20.0642 8.42345L0 37.0109L12.0466 37.1415C12.0466 37.1415 19.1275 52.9732 20.0239 54.9534C20.8398 56.7828 21.8168 58.5318 22.9348 60.1904C26.8832 64.9047 32.5238 65.2766 38.4161 61.1956C40.4608 59.7783 42.3242 57.8885 43.9358 55.5866L64 26.9992L51.9534 26.8686C51.9534 26.8686 44.8725 11.0369 43.9761 9.05672ZM41.1357 7.51879L49.7476 26.8686L41.9012 26.8987L37.3787 35.8046L30.4488 20.4856L37.2981 6.62417C37.7513 5.92055 39.4435 4.5736 41.1357 7.51879ZM36.2707 38.2372L34.7397 41.2829L27.7192 25.7629L29.2502 22.7172L36.2707 38.2372ZM3.83758 35.0407L21.7161 9.57941C23.1967 7.46853 24.8889 5.74966 26.7422 4.46303C29.8747 2.29183 34.2461 0.56292 38.1139 3.71919C37.0664 4.08106 36.1498 4.88521 35.3642 6.11153L20.7088 35.2216L3.83758 35.0407ZM22.8543 56.4913L14.2424 37.1415L22.0888 37.1114L26.6113 28.2055L33.5411 43.5244L26.6918 57.3859C26.2487 58.0895 24.5565 59.4264 22.8543 56.4913ZM42.2839 54.4206C40.8033 56.5315 39.1111 58.2504 37.2578 59.537C34.1152 61.7183 29.7438 63.4371 25.876 60.2909C26.9235 59.929 27.8401 59.1249 28.6257 57.8986L43.2912 28.7885L60.1523 28.9694L42.2839 54.4206Z" fill="black"/>
</g>
<defs>
<clipPath id="clip0_431_89">
<rect width="64" height="64" fill="white"/>
</clipPath>
</defs>
</svg>
