<svg aria-hidden="true" style="position: absolute; width: 0; height: 0; overflow: hidden;" version="1.1" xmlns="http://www.w3.org/2000/svg" xmlns:xlink="http://www.w3.org/1999/xlink">
<defs>

<symbol id="logo" viewBox="0 0 24 24">
<path fill="#E6E6E6" d="m9.00364 15.4164-3.97166-.03 2.76115 6.1426c.52022.5302 1.73072 1.0904 2.26097-.02l2.9112-5.6724-1.9708-4.2918-1.99086 3.8716ZM14.9963 8.57357l3.9717.03001-2.7612-6.13255c-.5202-.53022-1.7307-1.09046-2.2609.02001L11.0347 8.1634l1.9708 4.2918 1.9908-3.88163Z"/>
<path fill="#C4C4C4" d="m5.03209 15.3864 3.97166.03 1.99085-3.8716-.8004-1.74069-2.10083 4.11169-3.74156-.04.68028 1.5106ZM18.9679 8.61359l-3.9717-.04001-1.9908 3.88162.8003 1.7307 2.1009-4.1017 3.7415.03-.6802-1.50061Z"/>
<path d="M8.09337 13.9158 13.9458 2.49105c.5402-1.11046 1.7407-.55023 2.261-.02001-1.9609-3.50146-4.762-2.671111-6.71284-1.25052-.75032.55023-1.38058 1.24052-1.9208 2.00083L0 13.8358l8.09337.08ZM15.9066 10.0842 10.0542 21.509c-.54027 1.1105-1.74077.5502-2.26099.02 1.96082 3.5015 4.76199 2.6711 6.71279 1.2505.7503-.5502 1.3806-1.2405 1.9208-2.0008L24.01 10.1643l-8.1034-.0801Z"/>

</symbol>
<symbol id="heart" viewBox="0 0 32 32">
<path d="M19.283 3.324c1.052-0.436 2.179-0.66 3.317-0.66s2.266 0.224 3.318 0.66c1.051 0.436 2.007 1.074 2.812 1.879s1.444 1.761 1.88 2.812c0.436 1.052 0.66 2.179 0.66 3.318s-0.224 2.266-0.66 3.317c-0.436 1.052-1.074 2.007-1.88 2.812 0 0 0-0 0 0l-11.787 11.787c-0.521 0.521-1.365 0.521-1.886 0l-11.787-11.787c-1.626-1.626-2.539-3.831-2.539-6.129s0.913-4.504 2.539-6.129 3.83-2.539 6.129-2.539c2.299 0 4.504 0.913 6.129 2.539l0.471 0.471 0.47-0.47c0-0 0 0 0 0 0.805-0.805 1.761-1.444 2.812-1.88zM22.6 5.331c-0.788 0-1.569 0.155-2.297 0.457s-1.39 0.744-1.947 1.301l-1.414 1.414c-0.521 0.521-1.365 0.521-1.886 0l-1.413-1.413c-1.126-1.126-2.652-1.758-4.244-1.758s-3.118 0.632-4.244 1.758c-1.126 1.126-1.758 2.652-1.758 4.244s0.632 3.118 1.758 4.244l10.844 10.844 10.844-10.844c0.557-0.557 1-1.219 1.302-1.947s0.457-1.509 0.457-2.297-0.155-1.569-0.457-2.297-0.744-1.39-1.301-1.947c-0.557-0.557-1.219-1-1.947-1.302s-1.509-0.457-2.297-0.457z"></path>
</symbol>

<symbol id="close" viewBox="0 0 32 32">
<path d="M24.613 7.387c0.339 0.338 0.339 0.887 0 1.226l-16 16c-0.338 0.339-0.887 0.339-1.226 0s-0.338-0.887 0-1.226l16-16c0.338-0.338 0.887-0.338 1.226 0z"></path>
<path d="M7.387 7.387c0.338-0.338 0.887-0.338 1.226 0l16 16c0.339 0.338 0.339 0.887 0 1.226s-0.887 0.339-1.226 0l-16-16c-0.338-0.338-0.338-0.887 0-1.226z"></path>
</symbol>

<symbol id="menu" viewBox="0 0 32 32">
<path d="M2.667 7.993c0-0.733 0.595-1.327 1.327-1.327h10.68c0.352 0 0.689 0.14 0.938 0.389s0.389 0.586 0.389 0.938-0.14 0.689-0.389 0.938-0.586 0.389-0.938 0.389h-10.68c-0.352 0-0.689-0.14-0.938-0.389s-0.389-0.586-0.389-0.938zM2.667 16c0-0.733 0.595-1.327 1.327-1.327h24.013c0.352 0 0.689 0.14 0.938 0.389s0.389 0.586 0.389 0.938-0.14 0.689-0.389 0.938-0.586 0.389-0.938 0.389h-24.013c-0.352 0-0.689-0.14-0.938-0.389s-0.389-0.586-0.389-0.938zM3.993 22.68c-0.352 0-0.689 0.14-0.938 0.389s-0.389 0.586-0.389 0.938 0.14 0.689 0.389 0.938c0.249 0.249 0.586 0.389 0.938 0.389h16.013c0.352 0 0.689-0.14 0.938-0.389s0.389-0.586 0.389-0.938-0.14-0.689-0.389-0.938-0.586-0.389-0.938-0.389h-16.013z"></path>
</symbol>

<symbol id="arrow-left" viewBox="0 0 32 32">
<path d="M20.471 7.529c0.26 0.26 0.26 0.682 0 0.943l-7.529 7.529 7.529 7.529c0.26 0.26 0.26 0.683 0 0.943s-0.683 0.26-0.943 0l-8-8c-0.26-0.26-0.26-0.683 0-0.943l8-8c0.26-0.26 0.683-0.26 0.943 0z"></path>
</symbol>

<symbol id="arrow-right" viewBox="0 0 32 32">
<path d="M11.529 7.529c-0.26 0.26-0.26 0.682 0 0.943l7.529 7.529-7.529 7.529c-0.26 0.26-0.26 0.683 0 0.943s0.682 0.26 0.943 0l8-8c0.26-0.26 0.26-0.683 0-0.943l-8-8c-0.26-0.26-0.682-0.26-0.943 0z"></path>
</symbol>

<symbol id="facebook" viewBox="0 0 32 32">
<path d="M19.52 4.64h0.96v3.6h-1.2c-0.48 0-0.96 0-1.2 0.24s-0.24 0.48-0.24 1.040v1.28h2.64v3.040h-2.64v13.2h-4.080v-13.28h-2.16v-3.040h2.16v-1.040c0-1.76 0.24-3.040 0.72-3.6 0.72-1.040 2.16-1.52 4.32-1.52 0.24 0.080 0.48 0.080 0.72 0.080z"></path>
</symbol>

<symbol id="instagram" viewBox="0 0 32 32">
<path d="M28.717 10.756c-0.016-1.074-0.215-2.14-0.596-3.145-0.667-1.716-2.024-3.073-3.743-3.737-0.994-0.373-2.044-0.573-3.108-0.596-1.367-0.061-1.801-0.078-5.273-0.078s-3.916 0-5.274 0.078c-1.062 0.023-2.112 0.223-3.106 0.596-1.719 0.664-3.078 2.021-3.743 3.737-0.374 0.992-0.576 2.041-0.596 3.101-0.061 1.367-0.080 1.8-0.080 5.265s0 3.909 0.080 5.265c0.021 1.061 0.222 2.109 0.596 3.104 0.667 1.715 2.024 3.071 3.744 3.735 0.989 0.386 2.040 0.605 3.106 0.639 1.369 0.061 1.803 0.079 5.274 0.079s3.917 0 5.274-0.079c1.062-0.021 2.112-0.221 3.108-0.595 1.719-0.666 3.076-2.022 3.743-3.737 0.374-0.993 0.574-2.041 0.596-3.104 0.061-1.365 0.080-1.798 0.080-5.265-0.003-3.466-0.003-3.906-0.082-5.264zM15.99 22.531c-3.631 0-6.572-2.936-6.572-6.561s2.941-6.561 6.572-6.561c3.628 0 6.572 2.936 6.572 6.561s-2.944 6.561-6.572 6.561zM22.823 10.696c-0.849 0-1.532-0.684-1.532-1.53s0.684-1.53 1.532-1.53c0.846 0 1.531 0.684 1.531 1.53s-0.685 1.53-1.531 1.53z"></path>
<path d="M15.992 19.976c2.211 0 4.004-1.793 4.004-4.004s-1.793-4.004-4.004-4.004-4.004 1.793-4.004 4.004c0 2.211 1.793 4.004 4.004 4.004z"></path>
</symbol>

<symbol id="youtube" viewBox="0 0 32 32">
<path d="M24.24 6c-1.36-0.080-4.16-0.16-8.4-0.16h-0.56c-4.080 0-6.8 0.080-8.16 0.24-1.84 0.16-3.12 0.64-3.84 1.28-0.64 0.56-1.12 1.6-1.28 2.96-0.080 0.88-0.16 2.72-0.16 5.52v0.4c0 2.64 0.080 4.48 0.24 5.36 0.24 1.28 0.64 2.24 1.44 2.8 0.8 0.64 2.16 1.040 4.080 1.2 1.36 0.080 4.16 0.16 8.4 0.16h0.56c4.080 0 6.8-0.080 8.16-0.24 1.84-0.16 3.12-0.64 3.84-1.28 0.64-0.56 1.12-1.6 1.28-2.96 0.080-0.88 0.16-2.72 0.16-5.52v-0.4c0-2.64-0.080-4.48-0.24-5.36-0.24-1.28-0.64-2.24-1.44-2.8-0.8-0.64-2.16-1.040-4.080-1.2zM21.12 15.84l-8.8 5.28v-10.56l8.8 5.28z"></path>
</symbol>

<symbol id="gotop" viewBox="0 0 24 24">
<path d="M5.64645 15.3536c.19526.1952.51184.1952.7071 0L12 9.70711l5.6464 5.64649c.1953.1952.5119.1952.7072 0 .1952-.1953.1952-.5119 0-.7072l-6-5.99995c-.1953-.19527-.5119-.19527-.7072 0L5.64645 14.6464c-.19527.1953-.19527.5119 0 .7072Z"></path>
</symbol>

<symbol id="gh" viewBox="0 0 24 24">
<path d="M12 0C5.37346 0 0 5.5085 0 12.3038 0 17.74 3.43837 22.3519 8.20639 23.9789c.5997.1138.81993-.2669.81993-.5919 0-.2934-.0112-1.2627-.01628-2.2908-3.33852.7443-4.04297-1.4517-4.04297-1.4517-.54586-1.4221-1.33237-1.8002-1.33237-1.8002-1.08872-.7637.08206-.748.08206-.748 1.20504.0868 1.83956 1.2679 1.83956 1.2679 1.07027 1.881 2.80724 1.3372 3.49202 1.0229.10767-.7953.41871-1.338.76185-1.6453-2.66531-.3112-5.46728-1.3662-5.46728-6.0806 0-1.3432.46878-2.44087 1.23647-3.30249-.12461-.30995-.53532-1.56131.11623-3.25608 0 0 1.00768-.33069 3.30087 1.26121.95715-.2727 1.98372-.40934 3.00352-.41397 1.0199.00463 2.0472.14127 3.0062.41397 2.2905-1.5919 3.2968-1.26121 3.2968-1.26121.6531 1.69477.2422 2.94613.1176 3.25608.7694.86162 1.235 1.95919 1.235 3.30249 0 4.7256-2.8073 5.7662-5.4793 6.0708.4303.3818.8139 1.1306.8139 2.2785 0 1.6462-.014 2.9712-.014 3.3765 0 .3274.216.711.8244.5902C20.566 22.3485 24 17.7382 24 12.3038 24 5.5085 18.6273 0 12 0Z"></path>
</symbol>

<symbol id="goit" viewBox="0 0 80 24">
    <path fill="#FF5C00" d="M79.6801 0c-11.58.01-23.16.01-34.74 0-.26 0-.33.06-.33.33.01 7.75.01 15.49.01 23.24v.29h35.38v-.31c0-7.74 0-15.47.01-23.21-.01-.26-.07-.34-.33-.34Zm-22.3 17.3c-.75-.01-1.5 0-2.25-.01-.08 0-.15-.01-.24-.02V6.52c.09-.01.16-.02.24-.02.75 0 1.5.01 2.25-.01.22 0 .27.07.27.28-.01 3.41-.01 6.83 0 10.24 0 .22-.06.29-.27.29Zm12.05-8.19c-.85-.01-1.71 0-2.56-.01-.23 0-.29.07-.29.29.01 2.52 0 5.04.01 7.56 0 .26-.06.34-.33.34-.72-.02-1.45-.01-2.17 0-.22 0-.29-.07-.29-.29.01-2.51.01-5.03.01-7.54 0-.36 0-.36-.37-.36-.83 0-1.65-.01-2.48 0-.24 0-.31-.07-.31-.31.02-.66.02-1.32 0-1.98-.01-.26.07-.34.33-.34 1.4.01 2.81.01 4.21.01h4.11c.43 0 .43 0 .43.41 0 .63-.01 1.27.01 1.9.01.27-.08.32-.31.32Z"/>
    <path d="M43.7 11.88C40.99 7.99999 38.28 4.12999 35.58.239988c-.1-.1500002-.22-.1900002-.38-.1900002H0V24H35.2c.19 0 .29-.06.4-.21 2.08-2.98 4.17-5.95 6.25-8.92.65-.93 1.31-1.87 1.97-2.81l-.12-.18Zm-25.18 3.67c0 .1-.05.25-.12.31-1.78 1.45-3.79 1.99-6.04 1.46-2.56-.6-4.16-2.75-4.12-5.42.05-3.06001 2.42-5.41001 5.5-5.46001 1.7-.03 3.21.41 4.5 1.62-.57.69-1.13 1.37-1.7 2.06001-.24-.18001-.47-.37001-.71-.53001-.91-.6-1.9-.82-2.92-.42-1.22.48-1.77 1.47001-1.83 2.74001-.07 1.35.7 2.55 1.93 2.94.92.3 1.82.19 2.68-.24.13-.06.19-.15.18-.3-.01-.29 0-.58 0-.92h-2.25V11h4.91c.01.07.02.14.02.21-.02 1.44-.02 2.89-.03 4.34Zm9.44 1.91c-1.96.22-3.68-.29-5.04-1.75-2.68-2.89-1.56-8.04001 2.86-9.11001.47-.11.97-.14 1.45-.21 2.7.05 4.88 1.69 5.51 4.20001.84 3.27-1.4 6.49-4.78 6.87Z"/>
    <path d="M26.5301 9.04998c-1.34.32-2.21 1.46002-2.21 2.96002.01.1.01.23.02.37.01.09.03.19.05.28.25 1.08.87 1.85 1.94 2.17 1.07.32 2.05.12 2.86-.67.77-.76.98-1.7.83-2.74-.24-1.66002-1.86-2.76002-3.49-2.37002Z"/>
</symbol>

<symbol id="team-logo" viewBox="0 0 121 16">
    <path fill="#FF5C00" d="M53.9887 6.92328c-.2692-.16192-.4795-.37983-.6307-.65374-.1513-.27391-.2269-.57202-.2269-.89587 0-.32384.0741-.62196.2208-.89586.1467-.27391.357-.49182.6307-.65374.2738-.16193.5869-.24213.9393-.24213.3449 0 .6534.0802.9272.24213.2737.16192.4855.37983.6367.65374.1513.2739.2269.57202.2269.89586 0 .51149-.1679.93824-.5052 1.28025-.3357.342-.7698.51149-1.2992.51149-.3433 0-.6504-.08172-.9196-.24213ZM53.9887 15.1495c-.2692-.1619-.4795-.3798-.6307-.6537-.1513-.2739-.2269-.5736-.2269-.8959 0-.3238.0741-.622.2208-.8959.1467-.2739.357-.4918.6307-.6537.2738-.1619.5869-.2421.9393-.2421.3449 0 .6534.0802.9272.2421.2737.1619.4855.3798.6367.6537.1513.2739.2269.5736.2269.8959 0 .5115-.1679.9382-.5052 1.2802-.3357.342-.7698.5115-1.2992.5115-.3433 0-.6504-.0802-.9196-.2421ZM59.4172 6.92328c-.2693-.16192-.4795-.37983-.6308-.65374-.1512-.27391-.2268-.57202-.2268-.89587 0-.32384.0741-.62196.2208-.89586.1467-.27391.3569-.49182.6307-.65374.2738-.16193.5869-.24213.9393-.24213.3448 0 .6534.0802.9271.24213.2738.16192.4855.37983.6368.65374.1512.2739.2269.57202.2269.89586 0 .51149-.1679.93824-.5052 1.28025-.3358.342-.7699.51149-1.2992.51149-.3434 0-.6504-.08172-.9196-.24213ZM59.4172 15.1495c-.2693-.1619-.4795-.3798-.6308-.6537-.1512-.2739-.2268-.5736-.2268-.8959 0-.3238.0741-.622.2208-.8959.1467-.2739.3569-.4918.6307-.6537.2738-.1619.5869-.2421.9393-.2421.3448 0 .6534.0802.9271.2421.2738.1619.4855.3798.6368.6537.1512.2739.2269.5736.2269.8959 0 .5115-.1679.9382-.5052 1.2802-.3358.342-.7699.5115-1.2992.5115-.3434 0-.6504-.0802-.9196-.2421Z"/>
    <path d="M67.4378 15.1253c-.9695-.5826-1.7303-1.3741-2.2824-2.3728-.5505-.9988-.8258-2.0929-.8258-3.28386 0-1.18188.2753-2.27296.8258-3.27173.5506-.99877 1.3114-1.79173 2.2824-2.37889.971-.58716 2.054-.88073 3.2519-.88073 1.03 0 1.9677.20126 2.8147.60531.847.40405 1.5534.96245 2.1205 1.67824.5672.71578.9665 1.52842 1.1979 2.43942h-2.9584c-.2723-.66282-.6852-1.16675-1.2403-1.51026-.555-.34352-1.1963-.51603-1.9223-.51603-.6066 0-1.1783.15435-1.7122.46155-.5354.3072-.9665.75362-1.2932 1.33623-.3267.58262-.4916 1.26209-.4916 2.03689 0 .78386.1634 1.46336.4916 2.04296.3267.5796.7593 1.0245 1.2932 1.3362.5354.3118 1.1056.4676 1.7122.4676.735 0 1.3809-.1816 1.9405-.5448.5596-.3632.9665-.9125 1.2221-1.6479h2.9463c-.2162.9503-.605 1.7962-1.1676 2.5347-.5627.7385-1.272 1.3151-2.1266 1.7252-.8545.4116-1.7968.6174-2.8268.6174-1.1979 0-2.2824-.2921-3.2519-.8747ZM81.4405 15.1253c-.9862-.5826-1.7591-1.3725-2.3172-2.3668-.5596-.9942-.8379-2.0913-.8379-3.28986 0-1.19096.2798-2.28507.8379-3.28384.5596-.99877 1.331-1.79022 2.3172-2.37283.9861-.58262 2.0948-.87468 3.3244-.87468 1.2373 0 2.352.29206 3.3427.87468.9907.58261 1.7651 1.37406 2.3247 2.37283.5596.99877.8379 2.09288.8379 3.28384 0 1.19856-.2798 2.29716-.8379 3.29596-.5596.9988-1.3356 1.7872-2.3293 2.3668-.9937.5796-2.1099.8686-3.3486.8686-1.2237 0-2.3278-.2921-3.3139-.8747Zm5.1863-2.3138c.5476-.3269.9786-.7824 1.2932-1.3665.3161-.5826.4734-1.2424.4734-1.97787 0-.72638-.1573-1.38466-.4734-1.97182-.3161-.58715-.7487-1.04568-1.2992-1.3786-.5506-.33141-1.1662-.49788-1.8453-.49788s-1.2932.16647-1.8452.49788c-.5506.33141-.9847.79145-1.2993 1.3786-.3161.58716-.4734 1.24393-.4734 1.97182 0 .73547.1573 1.39377.4734 1.97787.3146.5826.7472 1.0381 1.2932 1.3665.5476.3284 1.1631.4918 1.8513.4918.6882 0 1.3053-.1634 1.8513-.4918ZM120.939 10.2359h-9.619c.095.6552.305 1.2227.629 1.7024s.726.8444 1.21 1.0972c.483.2512 1.007.3783 1.575.3783.718 0 1.306-.1423 1.766-.4253.459-.2829.797-.693 1.012-1.2287h3.163c-.217.7596-.595 1.4618-1.138 2.1095-.543.6477-1.223 1.1637-2.041 1.5526-.819.3874-1.72.5811-2.702.5811-1.205 0-2.296-.292-3.27-.8747-.974-.5826-1.736-1.374-2.288-2.3728-.551-.9988-.826-2.0929-.826-3.28384 0-1.19096.275-2.28506.826-3.28384.55-.99877 1.313-1.79022 2.288-2.37283.974-.58262 2.065-.87468 3.27-.87468 1.206 0 2.28.28752 3.222.86257.942.57505 1.674 1.34532 2.197 2.30777.524.96245.785 2.01116.785 3.14612.002.26786-.018.59473-.059.97913Zm-2.897-2.24121c-.041-.4555-.212-.87619-.516-1.26511-.304-.3874-.698-.6946-1.18-.9231-.484-.22851-1.004-.34201-1.564-.34201-.774 0-1.467.21338-2.078.64164-.611.42826-1.033 1.05627-1.265 1.88707h6.603v.00151ZM103.009 0v4.03897l.06 1.28175c-.231-.41464-.547-.80355-.947-1.1622-.399-.36017-.874-.65374-1.424-.88074-.551-.2285-1.1469-.342-1.7852-.342-1.1661 0-2.2037.29206-3.1142.87468-.9105.58262-1.6169 1.37255-2.1205 2.36678-.5037.99423-.7548 2.09137-.7548 3.28989 0 1.19857.2541 2.29717.7608 3.29597.5067.9987 1.2146 1.7872 2.1206 2.3668.9059.5795 1.9299.8686 3.0718.8686.9665 0 1.8185-.2315 2.5575-.6946.738-.4631 1.307-1.0472 1.708-1.7494v2.0732h2.756V0h-2.889Zm-.462 11.4223c-.323.5917-.762 1.0563-1.317 1.3968-.555.3389-1.165.5084-1.8271.5084-.6942 0-1.3174-.1695-1.8679-.5084-.5506-.339-.9832-.8036-1.2932-1.3907-.3116-.5872-.4674-1.2409-.4674-1.95975 0-.73546.1603-1.39374.4795-1.97787.3191-.58262.7547-1.04114 1.3053-1.37255.5505-.33141 1.1661-.49788 1.8452-.49788.6716 0 1.2846.16949 1.8396.50998.555.34049.992.80356 1.311 1.39071.319.58716.479 1.23636.479 1.94761-.003.71125-.163 1.36195-.487 1.95365ZM3.15659 15.1253c-.98615-.5841-1.75904-1.3725-2.318665-2.3683C.279812 11.7628 0 10.6657 0 9.46714c0-1.19095.279812-2.28506.837925-3.28383.559625-.99877 1.332515-1.79022 2.318665-2.37284.98615-.58413 2.09481-.87468 3.32447-.87468 1.23874 0 2.35194.29207 3.34263.87468.99071.58262 1.76511 1.37407 2.32471 2.37284.5596.99877.8394 2.09439.8394 3.28383 0 1.19856-.2798 2.29716-.8394 3.29596-.5596.9988-1.3355 1.7887-2.33076 2.3668-.99371.5796-2.10994.8686-3.34868.8686-1.2221.0015-2.32622-.2906-3.31237-.8732Zm5.18787-2.3138c.54753-.3269.97859-.7824 1.29319-1.3665.31611-.5826.47345-1.2424.47345-1.97786 0-.72637-.15734-1.38466-.47345-1.97181-.3146-.58716-.74869-1.0472-1.29924-1.37861s-1.16613-.49787-1.84525-.49787c-.67911 0-1.29318.16646-1.84525.49787-.55206.33141-.98464.79145-1.30075 1.37861-.31611.58715-.47341 1.24544-.47341 1.97181 0 .73546.1573 1.39526.47341 1.97786.3146.5841.74718 1.0396 1.2947 1.3665.54753.3284 1.16463.4918 1.8513.4918.68668 0 1.30378-.1634 1.8513-.4918ZM17.7493 15.1253c-.971-.5826-1.7318-1.374-2.2824-2.3728-.5505-.9988-.8258-2.0929-.8258-3.28384 0-1.18188.2753-2.27296.8258-3.27325.5506-.99877 1.3129-1.79173 2.2824-2.37889.971-.58715 2.0555-.88073 3.2534-.88073 1.03 0 1.9693.20127 2.8163.60532.847.40404 1.5533.96245 2.1205 1.67823.5672.71579.9665 1.52842 1.1979 2.43942h-2.96c-.2707-.66282-.6851-1.16674-1.2402-1.51026-.5551-.34351-1.1964-.51603-1.9224-.51603-.6065 0-1.1782.15436-1.7137.46155-.5354.3072-.9665.75362-1.2932 1.33624-.3282.58261-.4915 1.26208-.4915 2.03688 0 .78386.1633 1.46486.4915 2.04446.3267.5796.7593 1.0245 1.2932 1.3362.5355.3118 1.1072.4676 1.7137.4676.7351 0 1.3824-.1816 1.9405-.5447.5581-.3632.9665-.9126 1.2221-1.648h2.9479c-.2163.9503-.605 1.7963-1.1677 2.5347-.5626.74-1.272 1.3151-2.1265 1.7267-.8546.4116-1.7969.6174-2.8269.6174-1.1994-.0015-2.2839-.2936-3.2549-.8762ZM34.913 13.2186c-1.1903 0-1.7847-.7158-1.7847-2.1459V5.79892h2.5516v-2.4939h-2.5516V0h-2.8995v3.30502h-2.5516v2.4939h2.5516v5.14218c0 1.822.3872 3.0583 1.1616 3.7106.7744.6507 1.7485.9775 2.9237.9775h2.5047v-2.4106H34.913ZM41.1129 15.1253c-.9862-.5826-1.7591-1.3725-2.3187-2.3668-.5596-.9942-.8379-2.0913-.8379-3.28986 0-1.19096.2798-2.28507.8379-3.28384.5596-.99877 1.3325-1.79022 2.3187-2.37283.9861-.58413 2.0948-.87468 3.3245-.87468 1.2387 0 2.3519.29206 3.3426.87468.9907.58261 1.7651 1.37406 2.3247 2.37283.5596.99877.8394 2.0944.8394 3.28384 0 1.19856-.2798 2.29716-.8394 3.29596-.5596.9988-1.3355 1.7887-2.3308 2.3668-.9937.5796-2.1099.8686-3.3486.8686-1.2221 0-2.3263-.2921-3.3124-.8747Zm5.1879-2.3138c.5475-.3269.9786-.7824 1.2932-1.3665.3161-.5826.4734-1.2424.4734-1.97787 0-.72638-.1573-1.38466-.4734-1.97182-.3146-.58715-.7487-1.04719-1.2993-1.3786-.5505-.33141-1.1661-.49788-1.8452-.49788-.6792 0-1.2932.16647-1.8453.49788s-.9846.79145-1.3007 1.3786c-.3162.58716-.4734 1.24544-.4734 1.97182 0 .73547.1572 1.39527.4734 1.97787.3146.5841.7471 1.0396 1.2947 1.3665.5475.3284 1.1646.4918 1.8513.4918.6866 0 1.3037-.1634 1.8513-.4918Z"/>
    </symbol>
</defs>
</svg>
