<svg aria-hidden="true" style="position: absolute; width: 0; height: 0; overflow: hidden;" version="1.1" xmlns="http://www.w3.org/2000/svg" xmlns:xlink="http://www.w3.org/1999/xlink">
<defs>

<symbol id="logo" viewBox="0 0 24 24">
<path fill="#E6E6E6" d="m9.00364 15.4164-3.97166-.03 2.76115 6.1426c.52022.5302 1.73072 1.0904 2.26097-.02l2.9112-5.6724-1.9708-4.2918-1.99086 3.8716ZM14.9963 8.57357l3.9717.03001-2.7612-6.13255c-.5202-.53022-1.7307-1.09046-2.2609.02001L11.0347 8.1634l1.9708 4.2918 1.9908-3.88163Z"/>
<path fill="#C4C4C4" d="m5.03209 15.3864 3.97166.03 1.99085-3.8716-.8004-1.74069-2.10083 4.11169-3.74156-.04.68028 1.5106ZM18.9679 8.61359l-3.9717-.04001-1.9908 3.88162.8003 1.7307 2.1009-4.1017 3.7415.03-.6802-1.50061Z"/>
<path d="M8.09337 13.9158 13.9458 2.49105c.5402-1.11046 1.7407-.55023 2.261-.02001-1.9609-3.50146-4.762-2.671111-6.71284-1.25052-.75032.55023-1.38058 1.24052-1.9208 2.00083L0 13.8358l8.09337.08ZM15.9066 10.0842 10.0542 21.509c-.54027 1.1105-1.74077.5502-2.26099.02 1.96082 3.5015 4.76199 2.6711 6.71279 1.2505.7503-.5502 1.3806-1.2405 1.9208-2.0008L24.01 10.1643l-8.1034-.0801Z"/>

</symbol>
<symbol id="heart" viewBox="0 0 32 32">
<path d="M19.283 3.324c1.052-0.436 2.179-0.66 3.317-0.66s2.266 0.224 3.318 0.66c1.051 0.436 2.007 1.074 2.812 1.879s1.444 1.761 1.88 2.812c0.436 1.052 0.66 2.179 0.66 3.318s-0.224 2.266-0.66 3.317c-0.436 1.052-1.074 2.007-1.88 2.812 0 0 0-0 0 0l-11.787 11.787c-0.521 0.521-1.365 0.521-1.886 0l-11.787-11.787c-1.626-1.626-2.539-3.831-2.539-6.129s0.913-4.504 2.539-6.129 3.83-2.539 6.129-2.539c2.299 0 4.504 0.913 6.129 2.539l0.471 0.471 0.47-0.47c0-0 0 0 0 0 0.805-0.805 1.761-1.444 2.812-1.88zM22.6 5.331c-0.788 0-1.569 0.155-2.297 0.457s-1.39 0.744-1.947 1.301l-1.414 1.414c-0.521 0.521-1.365 0.521-1.886 0l-1.413-1.413c-1.126-1.126-2.652-1.758-4.244-1.758s-3.118 0.632-4.244 1.758c-1.126 1.126-1.758 2.652-1.758 4.244s0.632 3.118 1.758 4.244l10.844 10.844 10.844-10.844c0.557-0.557 1-1.219 1.302-1.947s0.457-1.509 0.457-2.297-0.155-1.569-0.457-2.297-0.744-1.39-1.301-1.947c-0.557-0.557-1.219-1-1.947-1.302s-1.509-0.457-2.297-0.457z"></path>
</symbol>

<symbol id="close" viewBox="0 0 32 32">
<path d="M24.613 7.387c0.339 0.338 0.339 0.887 0 1.226l-16 16c-0.338 0.339-0.887 0.339-1.226 0s-0.338-0.887 0-1.226l16-16c0.338-0.338 0.887-0.338 1.226 0z"></path>
<path d="M7.387 7.387c0.338-0.338 0.887-0.338 1.226 0l16 16c0.339 0.338 0.339 0.887 0 1.226s-0.887 0.339-1.226 0l-16-16c-0.338-0.338-0.338-0.887 0-1.226z"></path>
</symbol>

<symbol id="menu" viewBox="0 0 32 32">
<path d="M2.667 7.993c0-0.733 0.595-1.327 1.327-1.327h10.68c0.352 0 0.689 0.14 0.938 0.389s0.389 0.586 0.389 0.938-0.14 0.689-0.389 0.938-0.586 0.389-0.938 0.389h-10.68c-0.352 0-0.689-0.14-0.938-0.389s-0.389-0.586-0.389-0.938zM2.667 16c0-0.733 0.595-1.327 1.327-1.327h24.013c0.352 0 0.689 0.14 0.938 0.389s0.389 0.586 0.389 0.938-0.14 0.689-0.389 0.938-0.586 0.389-0.938 0.389h-24.013c-0.352 0-0.689-0.14-0.938-0.389s-0.389-0.586-0.389-0.938zM3.993 22.68c-0.352 0-0.689 0.14-0.938 0.389s-0.389 0.586-0.389 0.938 0.14 0.689 0.389 0.938c0.249 0.249 0.586 0.389 0.938 0.389h16.013c0.352 0 0.689-0.14 0.938-0.389s0.389-0.586 0.389-0.938-0.14-0.689-0.389-0.938-0.586-0.389-0.938-0.389h-16.013z"></path>
</symbol>

<symbol id="arrow-left" viewBox="0 0 32 32">
<path d="M20.471 7.529c0.26 0.26 0.26 0.682 0 0.943l-7.529 7.529 7.529 7.529c0.26 0.26 0.26 0.683 0 0.943s-0.683 0.26-0.943 0l-8-8c-0.26-0.26-0.26-0.683 0-0.943l8-8c0.26-0.26 0.683-0.26 0.943 0z"></path>
</symbol>

<symbol id="arrow-right" viewBox="0 0 32 32">
<path d="M11.529 7.529c-0.26 0.26-0.26 0.682 0 0.943l7.529 7.529-7.529 7.529c-0.26 0.26-0.26 0.683 0 0.943s0.682 0.26 0.943 0l8-8c0.26-0.26 0.26-0.683 0-0.943l-8-8c-0.26-0.26-0.682-0.26-0.943 0z"></path>
</symbol>

<symbol id="facebook" viewBox="0 0 32 32">
<path d="M19.52 4.64h0.96v3.6h-1.2c-0.48 0-0.96 0-1.2 0.24s-0.24 0.48-0.24 1.040v1.28h2.64v3.040h-2.64v13.2h-4.080v-13.28h-2.16v-3.040h2.16v-1.040c0-1.76 0.24-3.040 0.72-3.6 0.72-1.040 2.16-1.52 4.32-1.52 0.24 0.080 0.48 0.080 0.72 0.080z"></path>
</symbol>

<symbol id="instagram" viewBox="0 0 32 32">
<path d="M28.717 10.756c-0.016-1.074-0.215-2.14-0.596-3.145-0.667-1.716-2.024-3.073-3.743-3.737-0.994-0.373-2.044-0.573-3.108-0.596-1.367-0.061-1.801-0.078-5.273-0.078s-3.916 0-5.274 0.078c-1.062 0.023-2.112 0.223-3.106 0.596-1.719 0.664-3.078 2.021-3.743 3.737-0.374 0.992-0.576 2.041-0.596 3.101-0.061 1.367-0.080 1.8-0.080 5.265s0 3.909 0.080 5.265c0.021 1.061 0.222 2.109 0.596 3.104 0.667 1.715 2.024 3.071 3.744 3.735 0.989 0.386 2.040 0.605 3.106 0.639 1.369 0.061 1.803 0.079 5.274 0.079s3.917 0 5.274-0.079c1.062-0.021 2.112-0.221 3.108-0.595 1.719-0.666 3.076-2.022 3.743-3.737 0.374-0.993 0.574-2.041 0.596-3.104 0.061-1.365 0.080-1.798 0.080-5.265-0.003-3.466-0.003-3.906-0.082-5.264zM15.99 22.531c-3.631 0-6.572-2.936-6.572-6.561s2.941-6.561 6.572-6.561c3.628 0 6.572 2.936 6.572 6.561s-2.944 6.561-6.572 6.561zM22.823 10.696c-0.849 0-1.532-0.684-1.532-1.53s0.684-1.53 1.532-1.53c0.846 0 1.531 0.684 1.531 1.53s-0.685 1.53-1.531 1.53z"></path>
<path d="M15.992 19.976c2.211 0 4.004-1.793 4.004-4.004s-1.793-4.004-4.004-4.004-4.004 1.793-4.004 4.004c0 2.211 1.793 4.004 4.004 4.004z"></path>
</symbol>

<symbol id="youtube" viewBox="0 0 32 32">
<path d="M24.24 6c-1.36-0.080-4.16-0.16-8.4-0.16h-0.56c-4.080 0-6.8 0.080-8.16 0.24-1.84 0.16-3.12 0.64-3.84 1.28-0.64 0.56-1.12 1.6-1.28 2.96-0.080 0.88-0.16 2.72-0.16 5.52v0.4c0 2.64 0.080 4.48 0.24 5.36 0.24 1.28 0.64 2.24 1.44 2.8 0.8 0.64 2.16 1.040 4.080 1.2 1.36 0.080 4.16 0.16 8.4 0.16h0.56c4.080 0 6.8-0.080 8.16-0.24 1.84-0.16 3.12-0.64 3.84-1.28 0.64-0.56 1.12-1.6 1.28-2.96 0.080-0.88 0.16-2.72 0.16-5.52v-0.4c0-2.64-0.080-4.48-0.24-5.36-0.24-1.28-0.64-2.24-1.44-2.8-0.8-0.64-2.16-1.040-4.080-1.2zM21.12 15.84l-8.8 5.28v-10.56l8.8 5.28z"></path>
</symbol>

<symbol id="gotop" viewBox="0 0 24 24">
<path d="M5.64645 15.3536c.19526.1952.51184.1952.7071 0L12 9.70711l5.6464 5.64649c.1953.1952.5119.1952.7072 0 .1952-.1953.1952-.5119 0-.7072l-6-5.99995c-.1953-.19527-.5119-.19527-.7072 0L5.64645 14.6464c-.19527.1953-.19527.5119 0 .7072Z"></path>
</symbol>

<symbol id="gh" viewBox="0 0 24 24">
<path d="M12 0C5.37346 0 0 5.5085 0 12.3038 0 17.74 3.43837 22.3519 8.20639 23.9789c.5997.1138.81993-.2669.81993-.5919 0-.2934-.0112-1.2627-.01628-2.2908-3.33852.7443-4.04297-1.4517-4.04297-1.4517-.54586-1.4221-1.33237-1.8002-1.33237-1.8002-1.08872-.7637.08206-.748.08206-.748 1.20504.0868 1.83956 1.2679 1.83956 1.2679 1.07027 1.881 2.80724 1.3372 3.49202 1.0229.10767-.7953.41871-1.338.76185-1.6453-2.66531-.3112-5.46728-1.3662-5.46728-6.0806 0-1.3432.46878-2.44087 1.23647-3.30249-.12461-.30995-.53532-1.56131.11623-3.25608 0 0 1.00768-.33069 3.30087 1.26121.95715-.2727 1.98372-.40934 3.00352-.41397 1.0199.00463 2.0472.14127 3.0062.41397 2.2905-1.5919 3.2968-1.26121 3.2968-1.26121.6531 1.69477.2422 2.94613.1176 3.25608.7694.86162 1.235 1.95919 1.235 3.30249 0 4.7256-2.8073 5.7662-5.4793 6.0708.4303.3818.8139 1.1306.8139 2.2785 0 1.6462-.014 2.9712-.014 3.3765 0 .3274.216.711.8244.5902C20.566 22.3485 24 17.7382 24 12.3038 24 5.5085 18.6273 0 12 0Z"></path>
</symbol>

<symbol id="goit" viewBox="0 0 80 24">
    <path fill="#FF5C00" d="M79.6801 0c-11.58.01-23.16.01-34.74 0-.26 0-.33.06-.33.33.01 7.75.01 15.49.01 23.24v.29h35.38v-.31c0-7.74 0-15.47.01-23.21-.01-.26-.07-.34-.33-.34Zm-22.3 17.3c-.75-.01-1.5 0-2.25-.01-.08 0-.15-.01-.24-.02V6.52c.09-.01.16-.02.24-.02.75 0 1.5.01 2.25-.01.22 0 .27.07.27.28-.01 3.41-.01 6.83 0 10.24 0 .22-.06.29-.27.29Zm12.05-8.19c-.85-.01-1.71 0-2.56-.01-.23 0-.29.07-.29.29.01 2.52 0 5.04.01 7.56 0 .26-.06.34-.33.34-.72-.02-1.45-.01-2.17 0-.22 0-.29-.07-.29-.29.01-2.51.01-5.03.01-7.54 0-.36 0-.36-.37-.36-.83 0-1.65-.01-2.48 0-.24 0-.31-.07-.31-.31.02-.66.02-1.32 0-1.98-.01-.26.07-.34.33-.34 1.4.01 2.81.01 4.21.01h4.11c.43 0 .43 0 .43.41 0 .63-.01 1.27.01 1.9.01.27-.08.32-.31.32Z"/>
    <path d="M43.7 11.88C40.99 7.99999 38.28 4.12999 35.58.239988c-.1-.1500002-.22-.1900002-.38-.1900002H0V24H35.2c.19 0 .29-.06.4-.21 2.08-2.98 4.17-5.95 6.25-8.92.65-.93 1.31-1.87 1.97-2.81l-.12-.18Zm-25.18 3.67c0 .1-.05.25-.12.31-1.78 1.45-3.79 1.99-6.04 1.46-2.56-.6-4.16-2.75-4.12-5.42.05-3.06001 2.42-5.41001 5.5-5.46001 1.7-.03 3.21.41 4.5 1.62-.57.69-1.13 1.37-1.7 2.06001-.24-.18001-.47-.37001-.71-.53001-.91-.6-1.9-.82-2.92-.42-1.22.48-1.77 1.47001-1.83 2.74001-.07 1.35.7 2.55 1.93 2.94.92.3 1.82.19 2.68-.24.13-.06.19-.15.18-.3-.01-.29 0-.58 0-.92h-2.25V11h4.91c.01.07.02.14.02.21-.02 1.44-.02 2.89-.03 4.34Zm9.44 1.91c-1.96.22-3.68-.29-5.04-1.75-2.68-2.89-1.56-8.04001 2.86-9.11001.47-.11.97-.14 1.45-.21 2.7.05 4.88 1.69 5.51 4.20001.84 3.27-1.4 6.49-4.78 6.87Z"/>
    <path d="M26.5301 9.04998c-1.34.32-2.21 1.46002-2.21 2.96002.01.1.01.23.02.37.01.09.03.19.05.28.25 1.08.87 1.85 1.94 2.17 1.07.32 2.05.12 2.86-.67.77-.76.98-1.7.83-2.74-.24-1.66002-1.86-2.76002-3.49-2.37002Z"/>
</symbol>
</defs>
</svg>
