<svg aria-hidden="true" style="position: absolute; width: 0; height: 0; overflow: hidden;" version="1.1" xmlns="http://www.w3.org/2000/svg" xmlns:xlink="http://www.w3.org/1999/xlink">
<defs>

<symbol id="logo" viewBox="0 0 32 32">
<path fill="#000" style="fill: var(--color1, #000)" d="M18.589 3.316l-1.841 3.582-2.042 3.982 3.523 7.657h10.235l-6.859-15.248c-0.694-0.706-2.309-1.452-3.016 0.027z"></path>
<path fill="#000" style="fill: var(--color1, #000)" d="M13.411 28.671l1.841-3.582 2.042-3.982-3.523-7.657h-10.249l6.872 15.261c0.694 0.706 2.295 1.438 3.016-0.040z"></path>
<path d="M21.204 13.437l-5.965 11.639-1.841 3.582c-0.721 1.478-2.322 0.732-3.016 0.027 2.615 4.661 6.352 3.556 8.941 1.665 1.001-0.732 1.841-1.651 2.562-2.663l10.088-14.156-10.769-0.093z"></path>
<path d="M10.782 18.55l5.965-11.639 1.841-3.582c0.721-1.478 2.322-0.732 3.016-0.027-2.615-4.661-6.352-3.556-8.941-1.665-1.001 0.732-1.842 1.651-2.562 2.663l-10.102 14.142 10.782 0.107z"></path>

</symbol>
<symbol id="heart" viewBox="0 0 32 32">
<path d="M19.283 3.324c1.052-0.436 2.179-0.66 3.317-0.66s2.266 0.224 3.318 0.66c1.051 0.436 2.007 1.074 2.812 1.879s1.444 1.761 1.88 2.812c0.436 1.052 0.66 2.179 0.66 3.318s-0.224 2.266-0.66 3.317c-0.436 1.052-1.074 2.007-1.88 2.812 0 0 0-0 0 0l-11.787 11.787c-0.521 0.521-1.365 0.521-1.886 0l-11.787-11.787c-1.626-1.626-2.539-3.831-2.539-6.129s0.913-4.504 2.539-6.129 3.83-2.539 6.129-2.539c2.299 0 4.504 0.913 6.129 2.539l0.471 0.471 0.47-0.47c0-0 0 0 0 0 0.805-0.805 1.761-1.444 2.812-1.88zM22.6 5.331c-0.788 0-1.569 0.155-2.297 0.457s-1.39 0.744-1.947 1.301l-1.414 1.414c-0.521 0.521-1.365 0.521-1.886 0l-1.413-1.413c-1.126-1.126-2.652-1.758-4.244-1.758s-3.118 0.632-4.244 1.758c-1.126 1.126-1.758 2.652-1.758 4.244s0.632 3.118 1.758 4.244l10.844 10.844 10.844-10.844c0.557-0.557 1-1.219 1.302-1.947s0.457-1.509 0.457-2.297-0.155-1.569-0.457-2.297-0.744-1.39-1.301-1.947c-0.557-0.557-1.219-1-1.947-1.302s-1.509-0.457-2.297-0.457z"></path>
</symbol>

<symbol id="close" viewBox="0 0 32 32">
<path d="M24.613 7.387c0.339 0.338 0.339 0.887 0 1.226l-16 16c-0.338 0.339-0.887 0.339-1.226 0s-0.338-0.887 0-1.226l16-16c0.338-0.338 0.887-0.338 1.226 0z"></path>
<path d="M7.387 7.387c0.338-0.338 0.887-0.338 1.226 0l16 16c0.339 0.338 0.339 0.887 0 1.226s-0.887 0.339-1.226 0l-16-16c-0.338-0.338-0.338-0.887 0-1.226z"></path>
</symbol>

<symbol id="menu" vviewBox="0 0 32 32">
<path d="M2.667 7.993c0-0.733 0.595-1.327 1.327-1.327h10.68c0.352 0 0.689 0.14 0.938 0.389s0.389 0.586 0.389 0.938-0.14 0.689-0.389 0.938-0.586 0.389-0.938 0.389h-10.68c-0.352 0-0.689-0.14-0.938-0.389s-0.389-0.586-0.389-0.938zM2.667 16c0-0.733 0.595-1.327 1.327-1.327h24.013c0.352 0 0.689 0.14 0.938 0.389s0.389 0.586 0.389 0.938-0.14 0.689-0.389 0.938-0.586 0.389-0.938 0.389h-24.013c-0.352 0-0.689-0.14-0.938-0.389s-0.389-0.586-0.389-0.938zM3.993 22.68c-0.352 0-0.689 0.14-0.938 0.389s-0.389 0.586-0.389 0.938 0.14 0.689 0.389 0.938c0.249 0.249 0.586 0.389 0.938 0.389h16.013c0.352 0 0.689-0.14 0.938-0.389s0.389-0.586 0.389-0.938-0.14-0.689-0.389-0.938-0.586-0.389-0.938-0.389h-16.013z"></path>
</symbol>

<symbol id="arrow-left" viewBox="0 0 32 32">
<path d="M20.471 7.529c0.26 0.26 0.26 0.682 0 0.943l-7.529 7.529 7.529 7.529c0.26 0.26 0.26 0.683 0 0.943s-0.683 0.26-0.943 0l-8-8c-0.26-0.26-0.26-0.683 0-0.943l8-8c0.26-0.26 0.683-0.26 0.943 0z"></path>
</symbol>

<symbol id="arrow-right" viewBox="0 0 32 32">
<path d="M11.529 7.529c-0.26 0.26-0.26 0.682 0 0.943l7.529 7.529-7.529 7.529c-0.26 0.26-0.26 0.683 0 0.943s0.682 0.26 0.943 0l8-8c0.26-0.26 0.26-0.683 0-0.943l-8-8c-0.26-0.26-0.682-0.26-0.943 0z"></path>
</symbol>

<symbol id="facebook" viewBox="0 0 32 32">
<path d="M19.52 4.64h0.96v3.6h-1.2c-0.48 0-0.96 0-1.2 0.24s-0.24 0.48-0.24 1.040v1.28h2.64v3.040h-2.64v13.2h-4.080v-13.28h-2.16v-3.040h2.16v-1.040c0-1.76 0.24-3.040 0.72-3.6 0.72-1.040 2.16-1.52 4.32-1.52 0.24 0.080 0.48 0.080 0.72 0.080z"></path>
</symbol>

<symbol id="instagram" viewBox="0 0 32 32">
<path d="M28.717 10.756c-0.016-1.074-0.215-2.14-0.596-3.145-0.667-1.716-2.024-3.073-3.743-3.737-0.994-0.373-2.044-0.573-3.108-0.596-1.367-0.061-1.801-0.078-5.273-0.078s-3.916 0-5.274 0.078c-1.062 0.023-2.112 0.223-3.106 0.596-1.719 0.664-3.078 2.021-3.743 3.737-0.374 0.992-0.576 2.041-0.596 3.101-0.061 1.367-0.080 1.8-0.080 5.265s0 3.909 0.080 5.265c0.021 1.061 0.222 2.109 0.596 3.104 0.667 1.715 2.024 3.071 3.744 3.735 0.989 0.386 2.040 0.605 3.106 0.639 1.369 0.061 1.803 0.079 5.274 0.079s3.917 0 5.274-0.079c1.062-0.021 2.112-0.221 3.108-0.595 1.719-0.666 3.076-2.022 3.743-3.737 0.374-0.993 0.574-2.041 0.596-3.104 0.061-1.365 0.080-1.798 0.080-5.265-0.003-3.466-0.003-3.906-0.082-5.264zM15.99 22.531c-3.631 0-6.572-2.936-6.572-6.561s2.941-6.561 6.572-6.561c3.628 0 6.572 2.936 6.572 6.561s-2.944 6.561-6.572 6.561zM22.823 10.696c-0.849 0-1.532-0.684-1.532-1.53s0.684-1.53 1.532-1.53c0.846 0 1.531 0.684 1.531 1.53s-0.685 1.53-1.531 1.53z"></path>
<path d="M15.992 19.976c2.211 0 4.004-1.793 4.004-4.004s-1.793-4.004-4.004-4.004-4.004 1.793-4.004 4.004c0 2.211 1.793 4.004 4.004 4.004z"></path>
</symbol>

<symbol id="youtube" viewBox="0 0 32 32">
<path d="M24.24 6c-1.36-0.080-4.16-0.16-8.4-0.16h-0.56c-4.080 0-6.8 0.080-8.16 0.24-1.84 0.16-3.12 0.64-3.84 1.28-0.64 0.56-1.12 1.6-1.28 2.96-0.080 0.88-0.16 2.72-0.16 5.52v0.4c0 2.64 0.080 4.48 0.24 5.36 0.24 1.28 0.64 2.24 1.44 2.8 0.8 0.64 2.16 1.040 4.080 1.2 1.36 0.080 4.16 0.16 8.4 0.16h0.56c4.080 0 6.8-0.080 8.16-0.24 1.84-0.16 3.12-0.64 3.84-1.28 0.64-0.56 1.12-1.6 1.28-2.96 0.080-0.88 0.16-2.72 0.16-5.52v-0.4c0-2.64-0.080-4.48-0.24-5.36-0.24-1.28-0.64-2.24-1.44-2.8-0.8-0.64-2.16-1.040-4.080-1.2zM21.12 15.84l-8.8 5.28v-10.56l8.8 5.28z"></path>
</symbol>
</defs>
</svg>
